# xmcd
#
# Track frame offsets:
#	150
#	6453
#	49863
#	56043
#	102364
#	107433
#	159189
#	169221
#	217791
#	224642
#	264777
#	270981
#	327651
#
# Disc length: 4454 seconds
#
# Revision: 1
# Processed by: cddbd v1.5.2PL0 Copyright (c) Steve Scherf et al.
# Submitted via: audiograbber 1.83.01
#
DISCID=b411640d
DTITLE=Eckart zur Nieden - Die 3 vom Ast und die Freundschaft
DYEAR=1900
DGENRE=
TTITLE0=Eichhörnchen springen gewandt
TTITLE1=Diese Land gehört uns
TTITLE2=Wenn ein jeder wär wie ich
TTITLE3=Grimme, der Dachs
TTITLE4=Heißer Kopf und Wut im Bauch
TTITLE5=Freundschaft in Gefahr
TTITLE6=Ich kam zu Gott, den Kopf gesenkt
TTITLE7=Falsche und echte Freundschaften
TTITLE8=Hass macht Menschen kalt wie Stahl
TTITLE9=Käferkonferenz
TTITLE10=Mach ich alle andern klein
TTITLE11=Die schönen Hässlichen
TTITLE12=Sabine ist schön
EXTD=
EXTT0=
EXTT1=
EXTT2=
EXTT3=
EXTT4=
EXTT5=
EXTT6=
EXTT7=
EXTT8=
EXTT9=
EXTT10=
EXTT11=
EXTT12=
PLAYORDER=
